<?xml version="1.0" encoding="UTF-8" standalone="no"?>
<!DOCTYPE svg PUBLIC "-//W3C//DTD SVG 1.1//EN"
 "http://www.w3.org/Graphics/SVG/1.1/DTD/svg11.dtd">
<!-- Generated by graphviz version 12.2.1 (0)
 -->
<!-- Pages: 1 -->
<svg width="1838pt" height="1061pt"
 viewBox="0.00 0.00 1837.95 1061.36" xmlns="http://www.w3.org/2000/svg" xmlns:xlink="http://www.w3.org/1999/xlink">
<g id="graph0" class="graph" transform="scale(1 1) rotate(0) translate(4 1057.36)">
<polygon fill="white" stroke="none" points="-4,4 -4,-1057.36 1833.95,-1057.36 1833.95,4 -4,4"/>
<!-- com/github/externaltime/cartographer/ClassReader -->
<g id="node1" class="node">
<title>com/github/externaltime/cartographer/ClassReader</title>
<ellipse fill="none" stroke="black" cx="561.8" cy="-490.4" rx="200.29" ry="18"/>
<text text-anchor="middle" x="561.8" y="-485.35" font-family="Times,serif" font-size="14.00">com/github/externaltime/cartographer/ClassReader</text>
</g>
<!-- java/io/DataInputStream -->
<g id="node2" class="node">
<title>java/io/DataInputStream</title>
<ellipse fill="none" stroke="black" cx="325.67" cy="-539.96" rx="102.02" ry="18"/>
<text text-anchor="middle" x="325.67" y="-534.91" font-family="Times,serif" font-size="14.00">java/io/DataInputStream</text>
</g>
<!-- com/github/externaltime/cartographer/ClassReader&#45;&gt;java/io/DataInputStream -->
<g id="edge1" class="edge">
<title>com/github/externaltime/cartographer/ClassReader&#45;&gt;java/io/DataInputStream</title>
<path fill="none" stroke="black" d="M481.2,-507.32C456.06,-512.59 428.39,-518.4 403.44,-523.64"/>
<polygon fill="black" stroke="black" points="402.74,-520.21 393.68,-525.69 404.18,-527.06 402.74,-520.21"/>
</g>
<!-- java/io/InputStream -->
<g id="node3" class="node">
<title>java/io/InputStream</title>
<ellipse fill="none" stroke="black" cx="150.9" cy="-264.91" rx="84.62" ry="18"/>
<text text-anchor="middle" x="150.9" y="-259.86" font-family="Times,serif" font-size="14.00">java/io/InputStream</text>
</g>
<!-- com/github/externaltime/cartographer/ClassReader&#45;&gt;java/io/InputStream -->
<g id="edge2" class="edge">
<title>com/github/externaltime/cartographer/ClassReader&#45;&gt;java/io/InputStream</title>
<path fill="none" stroke="black" d="M528.86,-472.33C454.44,-431.49 273.44,-332.16 191.91,-287.42"/>
<polygon fill="black" stroke="black" points="193.79,-284.46 183.34,-282.71 190.42,-290.59 193.79,-284.46"/>
</g>
<!-- java/util/jar/JarFile -->
<g id="node4" class="node">
<title>java/util/jar/JarFile</title>
<ellipse fill="none" stroke="black" cx="260.37" cy="-845.84" rx="81.04" ry="18"/>
<text text-anchor="middle" x="260.37" y="-840.79" font-family="Times,serif" font-size="14.00">java/util/jar/JarFile</text>
</g>
<!-- com/github/externaltime/cartographer/ClassReader&#45;&gt;java/util/jar/JarFile -->
<g id="edge3" class="edge">
<title>com/github/externaltime/cartographer/ClassReader&#45;&gt;java/util/jar/JarFile</title>
<path fill="none" stroke="black" d="M546.43,-508.52C496.95,-566.87 341.53,-750.14 282.98,-819.18"/>
<polygon fill="black" stroke="black" points="280.47,-816.72 276.68,-826.61 285.81,-821.25 280.47,-816.72"/>
</g>
<!-- com/github/externaltime/cartographer/Graph -->
<g id="node5" class="node">
<title>com/github/externaltime/cartographer/Graph</title>
<ellipse fill="none" stroke="black" cx="951.87" cy="-496.07" rx="177.26" ry="18"/>
<text text-anchor="middle" x="951.87" y="-491.02" font-family="Times,serif" font-size="14.00">com/github/externaltime/cartographer/Graph</text>
</g>
<!-- com/github/externaltime/cartographer/ClassReader&#45;&gt;com/github/externaltime/cartographer/Graph -->
<g id="edge4" class="edge">
<title>com/github/externaltime/cartographer/ClassReader&#45;&gt;com/github/externaltime/cartographer/Graph</title>
<path fill="none" stroke="black" d="M759.98,-493.28C761.57,-493.3 763.16,-493.33 764.76,-493.35"/>
<polygon fill="black" stroke="black" points="764.49,-496.85 774.54,-493.49 764.6,-489.85 764.49,-496.85"/>
</g>
<!-- java/util/jar/JarEntry -->
<g id="node6" class="node">
<title>java/util/jar/JarEntry</title>
<ellipse fill="none" stroke="black" cx="87.18" cy="-565.19" rx="87.18" ry="18"/>
<text text-anchor="middle" x="87.18" y="-560.14" font-family="Times,serif" font-size="14.00">java/util/jar/JarEntry</text>
</g>
<!-- com/github/externaltime/cartographer/ClassReader&#45;&gt;java/util/jar/JarEntry -->
<g id="edge5" class="edge">
<title>com/github/externaltime/cartographer/ClassReader&#45;&gt;java/util/jar/JarEntry</title>
<path fill="none" stroke="black" d="M460.56,-506.35C373.32,-520.1 249.04,-539.68 168.24,-552.42"/>
<polygon fill="black" stroke="black" points="167.97,-548.92 158.63,-553.93 169.06,-555.83 167.97,-548.92"/>
</g>
<!-- java/nio/charset/StandardCharsets -->
<g id="node7" class="node">
<title>java/nio/charset/StandardCharsets</title>
<ellipse fill="none" stroke="black" cx="327.5" cy="-18" rx="136.31" ry="18"/>
<text text-anchor="middle" x="327.5" y="-12.95" font-family="Times,serif" font-size="14.00">java/nio/charset/StandardCharsets</text>
</g>
<!-- com/github/externaltime/cartographer/ClassReader&#45;&gt;java/nio/charset/StandardCharsets -->
<g id="edge6" class="edge">
<title>com/github/externaltime/cartographer/ClassReader&#45;&gt;java/nio/charset/StandardCharsets</title>
<path fill="none" stroke="black" d="M552.75,-472.17C516.99,-400.06 385.24,-134.42 341.63,-46.48"/>
<polygon fill="black" stroke="black" points="344.89,-45.19 337.31,-37.79 338.62,-48.3 344.89,-45.19"/>
</g>
<!-- com/github/externaltime/cartographer/Dot -->
<g id="node8" class="node">
<title>com/github/externaltime/cartographer/Dot</title>
<ellipse fill="none" stroke="black" cx="1243.53" cy="-563.94" rx="168.04" ry="18"/>
<text text-anchor="middle" x="1243.53" y="-558.89" font-family="Times,serif" font-size="14.00">com/github/externaltime/cartographer/Dot</text>
</g>
<!-- com/github/externaltime/cartographer/Dot&#45;&gt;com/github/externaltime/cartographer/Graph -->
<g id="edge8" class="edge">
<title>com/github/externaltime/cartographer/Dot&#45;&gt;com/github/externaltime/cartographer/Graph</title>
<path fill="none" stroke="black" d="M1171.81,-547.25C1130.54,-537.65 1078.48,-525.53 1035.37,-515.5"/>
<polygon fill="black" stroke="black" points="1036.34,-512.13 1025.8,-513.27 1034.75,-518.95 1036.34,-512.13"/>
</g>
<!-- java/io/Writer -->
<g id="node9" class="node">
<title>java/io/Writer</title>
<ellipse fill="none" stroke="black" cx="1197.3" cy="-391.9" rx="62.61" ry="18"/>
<text text-anchor="middle" x="1197.3" y="-386.85" font-family="Times,serif" font-size="14.00">java/io/Writer</text>
</g>
<!-- com/github/externaltime/cartographer/Dot&#45;&gt;java/io/Writer -->
<g id="edge7" class="edge">
<title>com/github/externaltime/cartographer/Dot&#45;&gt;java/io/Writer</title>
<path fill="none" stroke="black" d="M1238.59,-545.53C1230.59,-515.78 1214.76,-456.89 1205.19,-421.29"/>
<polygon fill="black" stroke="black" points="1208.58,-420.39 1202.6,-411.64 1201.82,-422.21 1208.58,-420.39"/>
</g>
<!-- com/github/externaltime/cartographer/TransReductionCondensation -->
<g id="node10" class="node">
<title>com/github/externaltime/cartographer/TransReductionCondensation</title>
<ellipse fill="none" stroke="black" cx="790.29" cy="-542.77" rx="263.75" ry="18"/>
<text text-anchor="middle" x="790.29" y="-537.72" font-family="Times,serif" font-size="14.00">com/github/externaltime/cartographer/TransReductionCondensation</text>
</g>
<!-- com/github/externaltime/cartographer/TransReductionCondensation&#45;&gt;com/github/externaltime/cartographer/Graph -->
<g id="edge9" class="edge">
<title>com/github/externaltime/cartographer/TransReductionCondensation&#45;&gt;com/github/externaltime/cartographer/Graph</title>
<path fill="none" stroke="black" d="M852.3,-524.85C861.64,-522.15 871.33,-519.35 880.84,-516.6"/>
<polygon fill="black" stroke="black" points="881.8,-519.96 890.44,-513.83 879.86,-513.24 881.8,-519.96"/>
</g>
<!-- com/github/externaltime/cartographer/Main -->
<g id="node11" class="node">
<title>com/github/externaltime/cartographer/Main</title>
<ellipse fill="none" stroke="black" cx="1319.69" cy="-610.52" rx="174.19" ry="18"/>
<text text-anchor="middle" x="1319.69" y="-605.47" font-family="Times,serif" font-size="14.00">com/github/externaltime/cartographer/Main</text>
</g>
<!-- com/github/externaltime/cartographer/Main&#45;&gt;com/github/externaltime/cartographer/ClassReader -->
<g id="edge14" class="edge">
<title>com/github/externaltime/cartographer/Main&#45;&gt;com/github/externaltime/cartographer/ClassReader</title>
<path fill="none" stroke="black" d="M1222.93,-595.18C1082.29,-572.89 822.01,-531.64 673.44,-508.09"/>
<polygon fill="black" stroke="black" points="674.42,-504.71 663.99,-506.6 673.32,-511.62 674.42,-504.71"/>
</g>
<!-- com/github/externaltime/cartographer/Main&#45;&gt;com/github/externaltime/cartographer/Dot -->
<g id="edge17" class="edge">
<title>com/github/externaltime/cartographer/Main&#45;&gt;com/github/externaltime/cartographer/Dot</title>
<path fill="none" stroke="black" d="M1290.03,-592.38C1287.7,-590.95 1285.33,-589.5 1282.96,-588.05"/>
<polygon fill="black" stroke="black" points="1284.89,-585.13 1274.53,-582.9 1281.24,-591.1 1284.89,-585.13"/>
</g>
<!-- com/github/externaltime/cartographer/Main&#45;&gt;com/github/externaltime/cartographer/TransReductionCondensation -->
<g id="edge12" class="edge">
<title>com/github/externaltime/cartographer/Main&#45;&gt;com/github/externaltime/cartographer/TransReductionCondensation</title>
<path fill="none" stroke="black" d="M1208.39,-596.28C1126.75,-585.83 1015.38,-571.57 928.11,-560.41"/>
<polygon fill="black" stroke="black" points="928.64,-556.94 918.28,-559.15 927.75,-563.89 928.64,-556.94"/>
</g>
<!-- java/io/PrintWriter -->
<g id="node12" class="node">
<title>java/io/PrintWriter</title>
<ellipse fill="none" stroke="black" cx="1749.43" cy="-708.99" rx="80.52" ry="18"/>
<text text-anchor="middle" x="1749.43" y="-703.94" font-family="Times,serif" font-size="14.00">java/io/PrintWriter</text>
</g>
<!-- com/github/externaltime/cartographer/Main&#45;&gt;java/io/PrintWriter -->
<g id="edge10" class="edge">
<title>com/github/externaltime/cartographer/Main&#45;&gt;java/io/PrintWriter</title>
<path fill="none" stroke="black" d="M1392.59,-627.22C1473.44,-645.75 1602.82,-675.4 1681.58,-693.45"/>
<polygon fill="black" stroke="black" points="1680.34,-696.75 1690.87,-695.58 1681.9,-689.93 1680.34,-696.75"/>
</g>
<!-- java/util/regex/Matcher -->
<g id="node13" class="node">
<title>java/util/regex/Matcher</title>
<ellipse fill="none" stroke="black" cx="1444.36" cy="-158.77" rx="97.93" ry="18"/>
<text text-anchor="middle" x="1444.36" y="-153.72" font-family="Times,serif" font-size="14.00">java/util/regex/Matcher</text>
</g>
<!-- com/github/externaltime/cartographer/Main&#45;&gt;java/util/regex/Matcher -->
<g id="edge11" class="edge">
<title>com/github/externaltime/cartographer/Main&#45;&gt;java/util/regex/Matcher</title>
<path fill="none" stroke="black" d="M1324.73,-592.25C1343.96,-522.57 1412.8,-273.11 1436.37,-187.69"/>
<polygon fill="black" stroke="black" points="1439.7,-188.8 1438.99,-178.23 1432.95,-186.93 1439.7,-188.8"/>
</g>
<!-- java/io/FileReader -->
<g id="node14" class="node">
<title>java/io/FileReader</title>
<ellipse fill="none" stroke="black" cx="1238.47" cy="-1034.6" rx="78.99" ry="18"/>
<text text-anchor="middle" x="1238.47" y="-1029.55" font-family="Times,serif" font-size="14.00">java/io/FileReader</text>
</g>
<!-- com/github/externaltime/cartographer/Main&#45;&gt;java/io/FileReader -->
<g id="edge13" class="edge">
<title>com/github/externaltime/cartographer/Main&#45;&gt;java/io/FileReader</title>
<path fill="none" stroke="black" d="M1316.15,-629.01C1303.39,-695.65 1259.69,-923.81 1244.07,-1005.34"/>
<polygon fill="black" stroke="black" points="1240.67,-1004.52 1242.22,-1015 1247.54,-1005.83 1240.67,-1004.52"/>
</g>
<!-- java/util/regex/Pattern -->
<g id="node15" class="node">
<title>java/util/regex/Pattern</title>
<ellipse fill="none" stroke="black" cx="1482.54" cy="-1035.36" rx="92.81" ry="18"/>
<text text-anchor="middle" x="1482.54" y="-1030.31" font-family="Times,serif" font-size="14.00">java/util/regex/Pattern</text>
</g>
<!-- com/github/externaltime/cartographer/Main&#45;&gt;java/util/regex/Pattern -->
<g id="edge15" class="edge">
<title>com/github/externaltime/cartographer/Main&#45;&gt;java/util/regex/Pattern</title>
<path fill="none" stroke="black" d="M1326.69,-628.77C1352.21,-695.37 1440.45,-925.55 1471.57,-1006.74"/>
<polygon fill="black" stroke="black" points="1468.18,-1007.68 1475.02,-1015.76 1474.71,-1005.17 1468.18,-1007.68"/>
</g>
<!-- java/io/BufferedReader -->
<g id="node16" class="node">
<title>java/io/BufferedReader</title>
<ellipse fill="none" stroke="black" cx="1662.31" cy="-292.2" rx="97.41" ry="18"/>
<text text-anchor="middle" x="1662.31" y="-287.15" font-family="Times,serif" font-size="14.00">java/io/BufferedReader</text>
</g>
<!-- com/github/externaltime/cartographer/Main&#45;&gt;java/io/BufferedReader -->
<g id="edge16" class="edge">
<title>com/github/externaltime/cartographer/Main&#45;&gt;java/io/BufferedReader</title>
<path fill="none" stroke="black" d="M1339.09,-592.49C1396.81,-538.87 1567.55,-380.24 1634.72,-317.84"/>
<polygon fill="black" stroke="black" points="1637.07,-320.43 1642.01,-311.06 1632.3,-315.3 1637.07,-320.43"/>
</g>
<!-- java/lang/System -->
<g id="node17" class="node">
<title>java/lang/System</title>
<ellipse fill="none" stroke="black" cx="1738.1" cy="-501.07" rx="74.89" ry="18"/>
<text text-anchor="middle" x="1738.1" y="-496.02" font-family="Times,serif" font-size="14.00">java/lang/System</text>
</g>
<!-- com/github/externaltime/cartographer/Main&#45;&gt;java/lang/System -->
<g id="edge18" class="edge">
<title>com/github/externaltime/cartographer/Main&#45;&gt;java/lang/System</title>
<path fill="none" stroke="black" d="M1385.07,-593.42C1464.48,-572.64 1597.48,-537.85 1675.58,-517.42"/>
<polygon fill="black" stroke="black" points="1676.44,-520.82 1685.23,-514.9 1674.67,-514.04 1676.44,-520.82"/>
</g>
<!-- java/io/PrintStream -->
<g id="node18" class="node">
<title>java/io/PrintStream</title>
<ellipse fill="none" stroke="black" cx="1655.41" cy="-897.24" rx="83.08" ry="18"/>
<text text-anchor="middle" x="1655.41" y="-892.19" font-family="Times,serif" font-size="14.00">java/io/PrintStream</text>
</g>
<!-- com/github/externaltime/cartographer/Main&#45;&gt;java/io/PrintStream -->
<g id="edge19" class="edge">
<title>com/github/externaltime/cartographer/Main&#45;&gt;java/io/PrintStream</title>
<path fill="none" stroke="black" d="M1340.95,-628.67C1398.88,-678.15 1559.66,-815.47 1626.1,-872.21"/>
<polygon fill="black" stroke="black" points="1623.43,-874.54 1633.31,-878.37 1627.98,-869.22 1623.43,-874.54"/>
</g>
</g>
</svg>
